<?xml version="1.0" encoding="UTF-8" standalone="no"?>
<svg width="26px" height="26px" viewBox="0 0 26 26" version="1.1" xmlns="http://www.w3.org/2000/svg" xmlns:xlink="http://www.w3.org/1999/xlink">
    <!-- Generator: Sketch 3.6.1 (26313) - http://www.bohemiancoding.com/sketch -->
    <title>add circle 1.1.2</title>
    <desc>Created with Sketch.</desc>
    <defs></defs>
    <g id="Page-1" stroke="none" stroke-width="1" fill="none" fill-rule="evenodd">
        <g id="Desktop-HD" transform="translate(-1365.000000, -41.000000)">
            <g id="add-circle-1.1.2" transform="translate(1363.000000, 39.000000)">
                <g id="Group">
                    <g id="Frames-24px">
                        <rect id="Rectangle-path" x="0" y="0" width="30" height="30"></rect>
                    </g>
                    <g id="Solid" transform="translate(2.500000, 2.500000)" fill="#757575">
                        <g id="Group">
                            <path d="M12.5,0 C5.6075,0 0,5.6075 0,12.5 C0,19.39375 5.6075,25 12.5,25 C19.3925,25 25,19.39375 25,12.5 C25,5.6075 19.3925,0 12.5,0 L12.5,0 Z M12.5,22.5 C6.98625,22.5 2.5,18.01375 2.5,12.5 C2.5,6.98625 6.98625,2.5 12.5,2.5 C18.01375,2.5 22.5,6.98625 22.5,12.5 C22.5,18.01375 18.01375,22.5 12.5,22.5 L12.5,22.5 Z" id="Shape"></path>
                            <path d="M13.75,6.25 L11.25,6.25 L11.25,11.25 L6.25,11.25 L6.25,13.75 L11.25,13.75 L11.25,18.75 L13.75,18.75 L13.75,13.75 L18.75,13.75 L18.75,11.25 L13.75,11.25 L13.75,6.25 Z" id="Shape"></path>
                        </g>
                    </g>
                </g>
            </g>
        </g>
    </g>
</svg>