<?xml version="1.0" encoding="UTF-8" standalone="no"?>
<svg width="24px" height="25px" viewBox="0 0 24 25" version="1.1" xmlns="http://www.w3.org/2000/svg" xmlns:xlink="http://www.w3.org/1999/xlink">
    <!-- Generator: Sketch 3.6.1 (26313) - http://www.bohemiancoding.com/sketch -->
    <title>bin.3</title>
    <desc>Created with Sketch.</desc>
    <defs></defs>
    <g id="Page-1" stroke="none" stroke-width="1" fill="none" fill-rule="evenodd">
        <g id="Desktop-HD" transform="translate(-1301.000000, -42.000000)">
            <g id="bin.3" transform="translate(1298.000000, 39.000000)">
                <g id="Group">
                    <g id="Frames-24px">
                        <rect id="Rectangle-path" x="0" y="0" width="30" height="30"></rect>
                    </g>
                    <g id="Outline" transform="translate(3.750000, 3.750000)" fill="#757575">
                        <g id="Group">
                            <path d="M2.5,21.25 C2.5,22.62875 3.62125,23.75 5,23.75 L17.5,23.75 C18.87875,23.75 20,22.62875 20,21.25 L20,6.25 L2.5,6.25 L2.5,21.25 L2.5,21.25 Z M5,8.75 L17.5,8.75 L17.50125,21.25 L5,21.25 L5,8.75 L5,8.75 Z" id="Shape"></path>
                            <path d="M15,2.5 L15,0 L7.5,0 L7.5,2.5 L0,2.5 L0,5 L22.5,5 L22.5,2.5 L15,2.5 Z" id="Shape"></path>
                            <rect id="Rectangle-path" x="7.5" y="11.25" width="2.5" height="7.5"></rect>
                            <rect id="Rectangle-path" x="12.5" y="11.25" width="2.5" height="7.5"></rect>
                        </g>
                    </g>
                </g>
            </g>
        </g>
    </g>
</svg>