<?xml version="1.0" encoding="UTF-8" standalone="no"?>
<svg width="31px" height="18px" viewBox="0 0 31 18" version="1.1" xmlns="http://www.w3.org/2000/svg" xmlns:xlink="http://www.w3.org/1999/xlink">
    <!-- Generator: Sketch 3.6.1 (26313) - http://www.bohemiancoding.com/sketch -->
    <title>View</title>
    <desc>Created with Sketch.</desc>
    <defs></defs>
    <g id="Page-1" stroke="none" stroke-width="1" fill="none" fill-rule="evenodd">
        <g id="Desktop-HD" transform="translate(-80.000000, -973.000000)" stroke="#757575">
            <g id="77-essential-icons-view" transform="translate(81.000000, 974.000000)">
                <g id="Group">
                    <g id="_x37_7_Essential_Icons">
                        <path d="M14.7065333,2.94130666 C11.830589,2.94130666 9.4775437,5.294352 9.4775437,8.17029629 C9.4775437,11.0462406 11.830589,13.3992859 14.7065333,13.3992859 C17.5824776,13.3992859 19.9355229,11.0462406 19.9355229,8.17029629 C19.9355229,5.294352 17.5824776,2.94130666 14.7065333,2.94130666 L14.7065333,2.94130666 Z M14.7065333,12.0920385 C12.5495751,12.0920385 10.7847911,10.3272545 10.7847911,8.17029629 C10.7847911,6.01333807 12.5495751,4.24855407 14.7065333,4.24855407 C16.8634915,4.24855407 18.6282755,6.01333807 18.6282755,8.17029629 C18.6282755,10.3272545 16.8634915,12.0920385 14.7065333,12.0920385 L14.7065333,12.0920385 Z M29.2169795,7.7127597 L26.4063976,4.86949659 C23.301685,1.73210281 19.1511745,0 14.7065333,0 C10.2618921,0 6.11138162,1.73210281 3.00666903,4.86949659 L0.196087111,7.7127597 C-0.0653623703,7.97420918 -0.0653623703,8.3663834 0.196087111,8.62783288 L3.00666903,11.471096 C6.11138162,14.6084898 10.2618921,16.3405926 14.7065333,16.3405926 C19.1511745,16.3405926 23.301685,14.6084898 26.4063976,11.471096 L29.2169795,8.62783288 C29.478429,8.3663834 29.478429,7.97420918 29.2169795,7.7127597 L29.2169795,7.7127597 Z M25.4913244,10.5560228 C22.6153801,13.4319671 18.7916815,15.0333452 14.7065333,15.0333452 C10.6213852,15.0333452 6.79768651,13.4319671 3.92174222,10.5560228 L1.56869689,8.17029629 L3.92174222,5.78456977 C6.79768651,2.90862548 10.6213852,1.30724741 14.7065333,1.30724741 C18.7916815,1.30724741 22.6153801,2.90862548 25.4913244,5.78456977 L27.8443698,8.17029629 L25.4913244,10.5560228 L25.4913244,10.5560228 Z" id="View"></path>
                    </g>
                </g>
            </g>
        </g>
    </g>
</svg>